<svg version="1.2" xmlns="http://www.w3.org/2000/svg" viewBox="0 0 498 498" width="498" height="498"><style>.a{fill:#e9802e}.b{fill:#fff}</style><path class="a" d="m462 0h-426.1c-4.8 0-9.4 0.9-13.8 2.7-4.3 1.8-8.3 4.5-11.6 7.8-3.3 3.3-6 7.3-7.8 11.6-1.8 4.4-2.7 9-2.7 13.7v426.2c0 4.7 0.9 9.3 2.7 13.7 1.8 4.3 4.5 8.3 7.8 11.6 3.3 3.3 7.3 6 11.6 7.8 4.4 1.8 9 2.7 13.7 2.7h426.2c4.7 0 9.3-0.9 13.7-2.7 4.3-1.8 8.3-4.5 11.6-7.8 3.3-3.3 6-7.3 7.8-11.6 1.8-4.4 2.7-9 2.7-13.7v-426.2c0-4.7-0.9-9.3-2.7-13.7-1.8-4.3-4.5-8.3-7.8-11.6-3.3-3.3-7.3-6-11.6-7.8-4.4-1.8-9-2.7-13.7-2.7z"/><path class="b" d="m324.9 139.7l-75 143.6 2 27.4h73.3v47.2h42.6v-47.2h18.8v-34.9h-18.8v-136.1h-9.3-33.3zm0.3 61.9v74.2h-33.8l32.7-72.3z"/><path class="b" d="m195.6 139.7v218.2h-42.3v-166.7l-41.8 16v-35l79.4-32.5z"/></svg>